<svg width="32" height="32" viewBox="0 0 32 32" fill="none" xmlns="http://www.w3.org/2000/svg">
<g id="005-medical-history" clip-path="url(#clip0_25_2248)">
<path id="Vector" d="M6.72541 32H25.5722C26.6937 32 27.6273 31.1215 27.6273 30.0419V6.62855C27.6273 5.54866 26.6937 4.66089 25.5722 4.66089H22.4654V6.44866C22.4699 6.75899 22.2309 7.01578 21.9281 7.02611H10.3326C10.0238 7.0185 9.77439 6.76496 9.76431 6.44866V4.66089H6.72541C5.60393 4.66089 4.67029 5.54866 4.67029 6.62855V30.0419C4.67029 31.1215 5.60393 32 6.72541 32ZM10.919 14.0522C10.919 13.7449 11.1622 13.4957 11.4623 13.4957H14.247V10.6435C14.247 10.3362 14.4903 10.087 14.7904 10.087H17.5072C17.8073 10.087 18.0506 10.3362 18.0506 10.6435V13.4957H20.8353C21.1354 13.4957 21.3787 13.7449 21.3787 14.0522V16.8348C21.3787 17.1421 21.1354 17.3913 20.8353 17.3913H18.0506V20.2435C18.0506 20.5508 17.8073 20.8 17.5072 20.8H14.7904C14.4903 20.8 14.247 20.5508 14.247 20.2435V17.3913H11.4623C11.1622 17.3913 10.919 17.1421 10.919 16.8348V14.0522ZM11.1402 23.6522H21.1574C21.4577 23.6522 21.7008 23.9014 21.7008 24.2087C21.7008 24.5161 21.4577 24.7652 21.1574 24.7652H11.1402C10.8399 24.7652 10.5969 24.5161 10.5969 24.2087C10.5969 23.9014 10.8399 23.6522 11.1402 23.6522ZM9.10262 26.4348H23.195C23.4953 26.4348 23.7384 26.684 23.7384 26.9913C23.7384 27.2987 23.4953 27.5478 23.195 27.5478H9.10262C8.80228 27.5478 8.55925 27.2987 8.55925 26.9913C8.55925 26.684 8.80228 26.4348 9.10262 26.4348Z" fill="white"/>
<path id="Vector_2" d="M21.3786 2.15652H18.8358C18.5801 2.15625 18.3588 1.97337 18.3049 1.71712C18.0948 0.722556 17.1726 1.23676e-06 16.1119 1.23676e-06H16.1052C15.0729 -0.00108572 14.1711 0.714403 13.9143 1.73832C13.8524 1.98424 13.6359 2.15625 13.3879 2.15652H10.851V5.91304H21.3786V2.15652Z" fill="white"/>
<path id="Vector_3" d="M15.3337 16.8347V19.6869H16.9638V16.8347C16.9638 16.5274 17.2071 16.2782 17.5072 16.2782H20.2919V14.6086H17.5072C17.2071 14.6086 16.9638 14.3595 16.9638 14.0521V11.2H15.3337V14.0521C15.3337 14.3595 15.0904 14.6086 14.7903 14.6086H12.0056V16.2782H14.7903C15.0904 16.2782 15.3337 16.5274 15.3337 16.8347Z" fill="white"/>
</g>
<defs>
<clipPath id="clip0_25_2248">
<rect width="31.2433" height="32" fill="white" transform="translate(0.5271)"/>
</clipPath>
</defs>
</svg>
