<svg width="60" height="61" viewBox="0 0 60 61" fill="none" xmlns="http://www.w3.org/2000/svg">
<g id="carbon:location-filled">
<rect y="0.0704346" width="60" height="60" rx="4" fill="#72A374"/>
<path id="Vector" d="M30.5 7.07043C25.8604 7.07596 21.4124 8.9403 18.1317 12.2545C14.851 15.5687 13.0055 20.0621 13 24.749C12.9945 28.5792 14.2329 32.3054 16.5255 35.3561C16.5255 35.3561 17.0027 35.991 17.0807 36.0826L30.5 52.0704L43.9257 36.0745C43.9957 35.9894 44.4745 35.3561 44.4745 35.3561L44.4761 35.3513C46.7675 32.302 48.0054 28.5774 48 24.749C47.9945 20.0621 46.149 15.5687 42.8683 12.2545C39.5876 8.9403 35.1396 7.07596 30.5 7.07043ZM30.5 31.1776C29.2414 31.1776 28.0111 30.8005 26.9646 30.0942C25.9181 29.3878 25.1024 28.3838 24.6208 27.2091C24.1391 26.0344 24.0131 24.7419 24.2586 23.4949C24.5042 22.2478 25.1103 21.1024 26.0002 20.2033C26.8902 19.3043 28.0241 18.692 29.2585 18.444C30.4929 18.1959 31.7725 18.3232 32.9353 18.8098C34.0981 19.2963 35.0919 20.1203 35.7912 21.1775C36.4904 22.2347 36.8636 23.4776 36.8636 24.749C36.8615 26.4533 36.1904 28.0872 34.9974 29.2923C33.8045 30.4975 32.1871 31.1754 30.5 31.1776Z" fill="white"/>
</g>
</svg>
