<svg width="60" height="61" viewBox="0 0 60 61" fill="none" xmlns="http://www.w3.org/2000/svg">
<g id="ic:sharp-email">
<rect y="0.0704346" width="60" height="60" rx="4" fill="#72A374"/>
<path id="Vector" d="M49.9998 19.0705C49.9998 16.3091 47.7612 14.0705 44.9998 14.0705H14.9998C12.2383 14.0705 9.99976 16.3091 9.99976 19.0705V41.0705C9.99976 43.8319 12.2383 46.0705 14.9998 46.0705H44.9998C47.7612 46.0705 49.9998 43.8319 49.9998 41.0705V19.0705ZM45.9998 21.1305C45.9998 21.7153 45.6985 22.2588 45.2026 22.5687L32.6497 30.4143C31.0284 31.4276 28.9711 31.4276 27.3498 30.4143L14.7969 22.5687C14.301 22.2588 13.9998 21.7153 13.9998 21.1305C13.9998 19.7984 15.465 18.9863 16.5946 19.6923L27.3498 26.4143C28.9711 27.4276 31.0284 27.4276 32.6497 26.4143L43.4049 19.6923C44.5345 18.9863 45.9998 19.7984 45.9998 21.1305Z" fill="white"/>
</g>
</svg>
