<svg width="24" height="25" viewBox="0 0 24 25" fill="none" xmlns="http://www.w3.org/2000/svg">
<path id="Vector" d="M21.8182 0.5H2.18182C0.976364 0.5 0 1.47636 0 2.68182V22.3182C0 23.5236 0.976364 24.5 2.18182 24.5H13.0909V14.6818H9.81818V11.4091H13.0909V9.65164C13.0909 6.32436 14.712 4.86364 17.4775 4.86364C18.8018 4.86364 19.5022 4.96182 19.8338 5.00655V8.13636H17.9476C16.7738 8.13636 16.3636 8.756 16.3636 10.0105V11.4091H19.8044L19.3375 14.6818H16.3636V24.5H21.8182C23.0236 24.5 24 23.5236 24 22.3182V2.68182C24 1.47636 23.0225 0.5 21.8182 0.5Z" fill="#357A38"/>
</svg>
