<svg width="77" height="88" viewBox="0 0 77 88" fill="none" xmlns="http://www.w3.org/2000/svg">
<g id="Vector">
<path d="M65.5629 9.3291H3.68223C1.93105 9.3291 0.511425 10.704 0.511425 12.4V84.4446C0.511425 86.1406 1.93105 87.5155 3.68223 87.5155H65.5629C67.3141 87.5155 68.7337 86.1406 68.7337 84.4446V12.4C68.7337 10.704 67.3141 9.3291 65.5629 9.3291Z" fill="#357A38"/>
<path d="M65.5566 88H3.67093C3.18886 88 2.7115 87.908 2.26612 87.7293C1.82075 87.5507 1.41606 87.2888 1.07519 86.9587C0.734308 86.6285 0.46391 86.2366 0.279429 85.8052C0.0949472 85.3739 0 84.9116 0 84.4447V12.4049C-9.01523e-07 11.4615 0.386598 10.5567 1.07489 9.88924C1.76318 9.22173 2.69688 8.84608 3.67093 8.8448H65.5566C66.5307 8.84608 67.4644 9.22173 68.1527 9.88924C68.841 10.5567 69.2275 11.4615 69.2275 12.4049V84.4447C69.2275 84.9116 69.1326 85.3739 68.9481 85.8052C68.7636 86.2366 68.4932 86.6285 68.1524 86.9587C67.8115 87.2888 67.4068 87.5507 66.9614 87.7293C66.516 87.908 66.0387 88 65.5566 88ZM3.67093 9.81353C2.96216 9.81481 2.28287 10.0884 1.78217 10.5742C1.28146 11.0601 1.00025 11.7185 1.00025 12.4049V84.4447C1.00158 85.1303 1.28337 85.7874 1.78394 86.2722C2.2845 86.757 2.96303 87.0299 3.67093 87.0312H65.5566C66.2645 87.0299 66.9431 86.757 67.4436 86.2722C67.9442 85.7874 68.226 85.1303 68.2273 84.4447V12.4049C68.2273 11.7185 67.9461 11.0601 67.4454 10.5742C66.9447 10.0884 66.2654 9.81481 65.5566 9.81353H3.67093Z" fill="#477349"/>
<path d="M5.89608 14.0675H63.3357V82.7846H5.89608V14.0675Z" fill="white"/>
<path d="M63.3419 83.2686H5.89732C5.76468 83.2686 5.63747 83.2176 5.54367 83.1267C5.44988 83.0359 5.39719 82.9127 5.39719 82.7842V14.0671C5.39719 13.9387 5.44988 13.8155 5.54367 13.7246C5.63747 13.6338 5.76468 13.5828 5.89732 13.5828H63.3419C63.4745 13.5828 63.6018 13.6338 63.6955 13.7246C63.7893 13.8155 63.842 13.9387 63.842 14.0671V82.7842C63.842 82.9127 63.7893 83.0359 63.6955 83.1267C63.6018 83.2176 63.4745 83.2686 63.3419 83.2686ZM6.39745 82.2999H62.8418V14.5515H6.39745V82.2999Z" fill="#477349"/>
<path d="M45.4911 5.79861H40.3648C40.3648 4.3213 39.7589 2.90449 38.6803 1.85987C37.6017 0.815253 36.1388 0.228394 34.6134 0.228394C33.088 0.228394 31.6251 0.815253 30.5465 1.85987C29.4679 2.90449 28.8619 4.3213 28.8619 5.79861H23.7456C23.2557 5.79989 22.7863 5.98927 22.4404 6.32522C22.0944 6.66118 21.9002 7.11629 21.9002 7.59076V13.8875C21.9002 14.362 22.0944 14.8171 22.4404 15.1531C22.7863 15.489 23.2557 15.6784 23.7456 15.6797H45.4911C45.9819 15.6797 46.4526 15.4909 46.7996 15.1548C47.1467 14.8187 47.3416 14.3628 47.3416 13.8875V7.59076C47.3416 7.11545 47.1467 6.65961 46.7996 6.32352C46.4526 5.98742 45.9819 5.79861 45.4911 5.79861ZM34.8134 7.20811C34.3485 7.20811 33.8941 7.0746 33.5075 6.82445C33.121 6.5743 32.8197 6.21876 32.6418 5.80278C32.4639 5.3868 32.4173 4.92907 32.508 4.48746C32.5987 4.04586 32.8226 3.64022 33.1513 3.32185C33.48 3.00347 33.8989 2.78665 34.3549 2.69881C34.8108 2.61097 35.2835 2.65605 35.713 2.82836C36.1425 3.00066 36.5096 3.29245 36.7679 3.66682C37.0262 4.04119 37.164 4.48134 37.164 4.93159C37.1627 5.53497 36.9146 6.11327 36.4741 6.53992C36.0336 6.96657 35.4364 7.20683 34.8134 7.20811Z" fill="#357A38"/>
<path d="M45.4921 16.1837H23.7466C23.1241 16.1824 22.5275 15.942 22.0877 15.5152C21.648 15.0884 21.401 14.5101 21.401 13.9072V7.61041C21.401 7.00748 21.648 6.42917 22.0877 6.00238C22.5275 5.57559 23.1241 5.33517 23.7466 5.33389H28.4078C28.5909 3.86313 29.3241 2.50831 30.4686 1.5255C31.6131 0.542694 33.0898 0 34.6194 0C36.149 0 37.6256 0.542694 38.7701 1.5255C39.9147 2.50831 40.6478 3.86313 40.8309 5.33389H45.4921C46.1151 5.33517 46.7123 5.57543 47.1528 6.00208C47.5933 6.42873 47.8414 7.00704 47.8427 7.61041V13.9072C47.8414 14.5106 47.5933 15.0889 47.1528 15.5155C46.7123 15.9422 46.1151 16.1824 45.4921 16.1837ZM23.7466 6.28325C23.5695 6.28325 23.3942 6.31711 23.2306 6.38289C23.0671 6.44867 22.9185 6.54508 22.7935 6.66658C22.6686 6.78809 22.5696 6.93229 22.5022 7.09093C22.4349 7.24957 22.4006 7.41953 22.4013 7.59104V13.8878C22.4006 14.0593 22.4349 14.2293 22.5022 14.3879C22.5696 14.5465 22.6686 14.6908 22.7935 14.8123C22.9185 14.9338 23.0671 15.0302 23.2306 15.0959C23.3942 15.1617 23.5695 15.1956 23.7466 15.1956H45.4921C45.8503 15.1956 46.1937 15.0578 46.447 14.8125C46.7002 14.5673 46.8425 14.2346 46.8425 13.8878V7.59104C46.8425 7.24419 46.7002 6.91155 46.447 6.66629C46.1937 6.42103 45.8503 6.28325 45.4921 6.28325H40.3658C40.2332 6.28325 40.106 6.23222 40.0122 6.14138C39.9184 6.05054 39.8657 5.92735 39.8657 5.79888C39.8657 4.45003 39.3124 3.15643 38.3276 2.20265C37.3428 1.24887 36.0071 0.713037 34.6144 0.713037C33.2216 0.713037 31.8859 1.24887 30.9011 2.20265C29.9163 3.15643 29.363 4.45003 29.363 5.79888C29.363 5.92735 29.3103 6.05054 29.2166 6.14138C29.1228 6.23222 28.9955 6.28325 28.8629 6.28325H23.7466ZM34.8144 7.69275C34.2506 7.69275 33.6994 7.53083 33.2306 7.22746C32.7618 6.92409 32.3965 6.4929 32.1807 5.98841C31.9649 5.48393 31.9085 4.92881 32.0185 4.39325C32.1285 3.85769 32.4 3.36574 32.7986 2.97963C33.1973 2.59351 33.7053 2.33056 34.2583 2.22403C34.8113 2.1175 35.3844 2.17218 35.9053 2.38114C36.4262 2.59011 36.8715 2.94397 37.1847 3.398C37.4979 3.85202 37.6651 4.38582 37.6651 4.93187C37.6638 5.66371 37.3631 6.36521 36.8287 6.8827C36.2944 7.40019 35.5701 7.69147 34.8144 7.69275ZM34.8144 3.13971C34.4484 3.13971 34.0907 3.24482 33.7864 3.44175C33.482 3.63867 33.2449 3.91857 33.1048 4.24604C32.9647 4.57351 32.9281 4.93386 32.9995 5.2815C33.0709 5.62914 33.2471 5.94848 33.5059 6.19911C33.7647 6.44975 34.0945 6.62044 34.4534 6.68959C34.8124 6.75874 35.1844 6.72325 35.5226 6.5876C35.8607 6.45196 36.1497 6.22226 36.353 5.92754C36.5564 5.63282 36.6649 5.28632 36.6649 4.93187C36.6636 4.45695 36.4682 4.00185 36.1214 3.66604C35.7747 3.33022 35.3048 3.14099 34.8144 3.13971Z" fill="#477349"/>
<path d="M34.623 58.4109C33.6227 57.5293 32.6925 56.6478 31.7072 55.805C28.9765 53.4606 26.2375 51.1244 23.4901 48.7962C21.636 47.2751 19.868 45.6582 18.1938 43.9525C16.6905 42.4383 15.4779 40.6767 14.6129 38.7504C14.0622 37.4355 13.6923 36.0561 13.5126 34.6479C13.3346 33.3866 13.271 32.1127 13.3226 30.8407C13.3691 28.7288 14.0864 26.6821 15.3768 24.979C16.6672 23.276 18.4681 21.9994 20.5344 21.3229C25.0655 19.8698 29.0365 20.8918 32.4674 24.079C33.237 24.8193 33.9089 25.649 34.4679 26.5492L34.5929 26.743L34.748 26.5057C35.9784 24.5452 37.7367 22.9461 39.8343 21.88C41.6785 20.9547 43.757 20.5582 45.8258 20.7368C48.1322 20.8704 50.333 21.7195 52.1024 23.1587C54.0691 24.7595 55.3698 26.9967 55.7633 29.4554C55.9541 30.7209 55.9876 32.0039 55.8633 33.2771C55.7852 34.6457 55.5453 36.0011 55.1481 37.3167C54.5147 39.3176 53.474 41.1753 52.0874 42.7804C50.6537 44.4369 49.0813 45.9759 47.3862 47.3818C44.8855 49.5227 42.3449 51.6346 39.8443 53.7852C38.1288 55.2383 36.4584 56.7737 34.773 58.2752L34.623 58.4109Z" fill="#357A38"/>
<path d="M34.6237 58.8955C34.4973 58.8951 34.3758 58.8484 34.2836 58.7647L33.3584 57.9316C32.7132 57.3455 32.048 56.7401 31.3579 56.1685C29.0806 54.2311 26.8 52.2855 24.5161 50.3319L23.1758 49.1597C21.3104 47.6268 19.5292 46.0003 17.8394 44.287C16.2954 42.7389 15.0519 40.9341 14.1685 38.959C13.5979 37.6046 13.2161 36.1826 13.0332 34.7305C12.8522 33.4468 12.787 32.1502 12.8382 30.8555C12.8888 28.6461 13.6409 26.5053 14.9921 24.7244C16.3433 22.9434 18.228 21.6088 20.3901 20.9018C25.0213 19.4487 29.2073 20.3884 32.8332 23.7693C33.5129 24.4095 34.1168 25.121 34.6337 25.8908C35.8885 24.0363 37.6095 22.5212 39.635 21.4879C41.5503 20.5151 43.7106 20.0869 45.8665 20.2528C48.4091 20.4091 50.8215 21.3965 52.7094 23.0533C54.5973 24.7101 55.8487 26.9382 56.2592 29.3734C56.4552 30.679 56.4904 32.0025 56.3642 33.3161C56.2808 34.719 56.0341 36.1082 55.629 37.4575C54.9796 39.5209 53.9081 41.4367 52.4782 43.0906C51.0256 44.7659 49.4349 46.3242 47.722 47.7502L44.2811 50.6564C42.9108 51.8189 41.5354 52.9765 40.1751 54.1487C38.9948 55.161 37.8145 56.217 36.6742 57.2341C36.1741 57.7185 35.6339 58.169 35.1088 58.6291L34.9588 58.7647C34.8678 58.8472 34.7483 58.8939 34.6237 58.8955ZM24.4311 21.1731C23.1581 21.1826 21.895 21.3903 20.6902 21.7882C18.7218 22.4353 17.0068 23.6536 15.7782 25.2776C14.5497 26.9016 13.8672 28.8525 13.8234 30.8652C13.7728 32.1097 13.8347 33.356 14.0085 34.59C14.179 35.9577 14.539 37.2969 15.0787 38.5715C15.9211 40.4479 17.1071 42.1611 18.5796 43.6283C20.2424 45.3144 21.9952 46.915 23.831 48.4235L25.1763 49.6054C27.4635 51.5428 29.7458 53.4884 32.023 55.442C32.6982 56.0232 33.3734 56.6335 34.0235 57.2244L34.6037 57.7524L35.979 56.527C37.1193 55.5049 38.3046 54.449 39.4799 53.427C40.8436 52.2548 42.2156 51.0891 43.596 49.9299C44.7429 48.9612 45.8865 47.9924 47.0268 47.0237C48.7019 45.6355 50.2559 44.1159 51.673 42.4803C53.0322 40.9358 54.0562 39.1418 54.6838 37.2056C55.0711 35.9265 55.3044 34.6084 55.3789 33.2774C55.5008 32.0415 55.4706 30.7961 55.2889 29.5671C54.9028 27.2289 53.66 25.1036 51.788 23.5804C50.0975 22.1988 47.9939 21.3788 45.7865 21.2409C43.8171 21.0805 41.8409 21.4616 40.0851 22.3404C38.0623 23.3615 36.3697 24.9035 35.1938 26.7966L35.0388 27.0339C34.9936 27.1021 34.9315 27.1582 34.8581 27.1972C34.7847 27.2361 34.7024 27.2566 34.6187 27.2567C34.5316 27.2599 34.4453 27.241 34.3681 27.2019C34.2909 27.1629 34.2256 27.1049 34.1786 27.0339L34.0485 26.8353C33.504 25.9677 32.8505 25.1689 32.1031 24.4571C29.7975 22.2629 27.2168 21.1731 24.4311 21.1731Z" fill="#477349"/>
<path d="M39.4942 46.7523H39.4592C39.3536 46.745 39.2532 46.7054 39.1723 46.6393C39.0914 46.5731 39.0343 46.4838 39.0091 46.3842L35.1782 31.2381L29.8368 43.3472C29.8003 43.4311 29.7401 43.5033 29.6631 43.5556C29.5862 43.6078 29.4956 43.638 29.4017 43.6427C29.3089 43.647 29.2167 43.6261 29.1354 43.5825C29.0541 43.5389 28.987 43.4742 28.9416 43.3957L25.6757 37.8739H15.2731C15.1405 37.8739 15.0133 37.8229 14.9195 37.732C14.8257 37.6412 14.773 37.518 14.773 37.3895C14.773 37.2611 14.8257 37.1379 14.9195 37.047C15.0133 36.9562 15.1405 36.9052 15.2731 36.9052H25.9658C26.0539 36.9048 26.1406 36.927 26.217 36.9696C26.2934 37.0121 26.3569 37.0734 26.4009 37.1474L29.2867 42.0491L34.8181 29.5137C34.8588 29.4198 34.929 29.3407 35.0188 29.2877C35.1086 29.2346 35.2133 29.2103 35.3182 29.2183C35.4229 29.2266 35.5223 29.2666 35.6022 29.3327C35.6821 29.3988 35.7384 29.4875 35.7633 29.5864L39.6043 44.6696L43.9454 34.1104C43.9824 34.0202 44.0466 33.943 44.1295 33.8886C44.2124 33.8342 44.3103 33.8051 44.4105 33.8052H54.5631C54.6957 33.8052 54.8229 33.8562 54.9167 33.9471C55.0105 34.0379 55.0632 34.1611 55.0632 34.2896C55.0632 34.418 55.0105 34.5412 54.9167 34.6321C54.8229 34.7229 54.6957 34.7739 54.5631 34.7739H44.7456L39.9594 46.4327C39.9247 46.5255 39.8616 46.6059 39.7785 46.663C39.6953 46.7201 39.5962 46.7513 39.4942 46.7523Z" fill="white"/>
<path d="M55.9043 64.6012H13.3335C13.2008 64.6012 13.0736 64.5501 12.9798 64.4593C12.886 64.3685 12.8333 64.2453 12.8333 64.1168C12.8333 63.9884 12.886 63.8652 12.9798 63.7743C13.0736 63.6835 13.2008 63.6324 13.3335 63.6324H55.9043C56.0369 63.6324 56.1641 63.6835 56.2579 63.7743C56.3517 63.8652 56.4044 63.9884 56.4044 64.1168C56.4044 64.2453 56.3517 64.3685 56.2579 64.4593C56.1641 64.5501 56.0369 64.6012 55.9043 64.6012Z" fill="#C8E6C9"/>
<path d="M55.9043 70.4784H13.3335C13.2008 70.4784 13.0736 70.4273 12.9798 70.3365C12.886 70.2457 12.8333 70.1225 12.8333 69.994C12.8333 69.8655 12.886 69.7423 12.9798 69.6515C13.0736 69.5607 13.2008 69.5096 13.3335 69.5096H55.9043C56.0369 69.5096 56.1641 69.5607 56.2579 69.6515C56.3517 69.7423 56.4044 69.8655 56.4044 69.994C56.4044 70.1225 56.3517 70.2457 56.2579 70.3365C56.1641 70.4273 56.0369 70.4784 55.9043 70.4784Z" fill="#C8E6C9"/>
<path d="M48.2873 76.3487H13.3335C13.2008 76.3487 13.0736 76.2977 12.9798 76.2069C12.886 76.116 12.8333 75.9928 12.8333 75.8644C12.8333 75.7359 12.886 75.6127 12.9798 75.5219C13.0736 75.431 13.2008 75.38 13.3335 75.38H48.2873C48.42 75.38 48.5472 75.431 48.641 75.5219C48.7347 75.6127 48.7874 75.7359 48.7874 75.8644C48.7874 75.9928 48.7347 76.116 48.641 76.2069C48.5472 76.2977 48.42 76.3487 48.2873 76.3487Z" fill="#C8E6C9"/>
<path d="M72.1891 39.8697L75.7384 42.0824C76.073 42.291 76.3083 42.6198 76.3926 42.9964C76.4769 43.373 76.4033 43.7667 76.1879 44.0907L68.2401 56.0485L62.1844 52.2732L70.1404 40.3032C70.3558 39.9862 70.6907 39.7633 71.0735 39.6822C71.4564 39.6012 71.8568 39.6685 72.1891 39.8697Z" fill="#357A38" fill-opacity="0.27"/>
<path d="M68.2267 56.5217C68.1309 56.5214 68.0371 56.4945 67.9566 56.4442L61.9001 52.6709C61.7888 52.6015 61.7105 52.4921 61.6824 52.3668C61.6543 52.2415 61.6786 52.1105 61.7501 52.0025L69.6871 40.0484C69.8271 39.8344 70.0098 39.6496 70.2245 39.5049C70.4392 39.3602 70.6816 39.2584 70.9374 39.2056C71.4536 39.0976 71.9929 39.1916 72.4378 39.4671L75.9887 41.6807C76.4334 41.9585 76.7463 42.3957 76.8589 42.8964C76.9151 43.1442 76.9197 43.4003 76.8724 43.6498C76.8252 43.8993 76.7271 44.1372 76.5838 44.3495L68.6368 56.3085C68.5643 56.4156 68.451 56.4904 68.3217 56.5168C68.2904 56.5223 68.2585 56.524 68.2267 56.5217ZM62.8653 52.1188L68.0767 55.3689L75.7536 43.8216C75.8923 43.6075 75.939 43.3493 75.8839 43.1023C75.8288 42.8552 75.6761 42.6388 75.4585 42.4993L71.9076 40.2857C71.6865 40.1514 71.42 40.1062 71.1649 40.1595C70.9098 40.2129 70.6864 40.3608 70.5423 40.5715L62.8653 52.1188Z" fill="#477349"/>
<path d="M52.2438 74.8348L54.9945 73.2316C55.8591 72.7311 56.5919 72.043 57.135 71.2214L67.5226 55.6103L62.8815 52.7041L52.4938 68.3298C51.9497 69.1493 51.6075 70.079 51.4936 71.0471L51.1285 74.1373L52.2438 74.8348Z" fill="#357A38" fill-opacity="0.27"/>
<path d="M52.2436 75.3212C52.1461 75.3219 52.0505 75.2949 51.9686 75.2437L50.8533 74.5462C50.7711 74.4954 50.7061 74.4226 50.6661 74.3365C50.6261 74.2505 50.6129 74.155 50.6282 74.0618L50.9933 70.9716C51.1207 69.9359 51.4902 68.942 52.0736 68.0654L62.4562 52.4445C62.4918 52.3905 62.538 52.3439 62.5923 52.3073C62.6466 52.2707 62.7078 52.2449 62.7725 52.2314C62.8371 52.2178 62.9039 52.2169 62.9689 52.2285C63.034 52.2402 63.096 52.2642 63.1514 52.2992L67.7926 55.2054C67.8482 55.2397 67.8963 55.2843 67.9341 55.3367C67.9718 55.3891 67.9985 55.4482 68.0126 55.5106C68.0267 55.5734 68.0278 55.6383 68.0158 55.7015C68.0038 55.7647 67.9789 55.8249 67.9426 55.8787L57.555 71.5044C56.9675 72.386 56.1786 73.1251 55.2494 73.6646L52.4987 75.2679C52.4196 75.3059 52.3319 75.3243 52.2436 75.3212ZM51.6835 73.8971L52.2736 74.2652L54.7743 72.8121C55.5697 72.345 56.2452 71.7091 56.7498 70.9522L66.8673 55.7334L63.0664 53.3648L52.9138 68.5933C52.4111 69.354 52.093 70.2151 51.9836 71.112L51.6835 73.8971Z" fill="#477349"/>
<path d="M51.1359 74.1362L52.1409 74.7628L51.3776 75.9113C51.2936 76.0377 51.1612 76.1266 51.0095 76.1584C50.8578 76.1903 50.6993 76.1625 50.5688 76.0811C50.4383 75.9998 50.3465 75.8715 50.3137 75.7247C50.2808 75.5778 50.3095 75.4242 50.3935 75.2979L51.1569 74.1493L51.1359 74.1362Z" fill="#477349"/>
<path d="M50.8486 76.6491C50.6405 76.65 50.4368 76.591 50.2634 76.4796C50.1435 76.4059 50.0401 76.3096 49.9593 76.1964C49.8786 76.0833 49.8221 75.9556 49.7933 75.8209C49.7617 75.6858 49.7583 75.5459 49.7832 75.4095C49.8081 75.2731 49.8608 75.1429 49.9384 75.0265L50.7035 73.8785C50.7753 73.7708 50.8882 73.695 51.0176 73.6677C51.147 73.6405 51.2823 73.664 51.3937 73.7332L52.394 74.3484C52.4496 74.3827 52.4977 74.4273 52.5355 74.4797C52.5732 74.532 52.5999 74.5911 52.614 74.6535C52.6412 74.7788 52.616 74.9094 52.544 75.0168L51.7788 76.1648C51.6799 76.3162 51.5423 76.4403 51.3793 76.5252C51.2164 76.61 51.0336 76.6527 50.8486 76.6491ZM50.8036 75.6804C50.823 75.6918 50.8462 75.6956 50.8685 75.6911C50.8908 75.6866 50.9105 75.6741 50.9236 75.6562L51.4237 74.9151L51.2787 74.8231L50.7786 75.569C50.77 75.5877 50.7679 75.6086 50.7724 75.6286C50.7769 75.6486 50.7878 75.6668 50.8036 75.6804Z" fill="#477349"/>
<path d="M59.9212 53.0877C59.8275 53.0879 59.7356 53.0626 59.656 53.0146C59.5764 52.9667 59.5123 52.898 59.4711 52.8165C59.4421 52.7593 59.425 52.6971 59.4209 52.6334C59.4167 52.5698 59.4256 52.506 59.447 52.4457C59.4684 52.3854 59.5018 52.3298 59.5454 52.282C59.589 52.2343 59.642 52.1953 59.7012 52.1674C61.2315 51.4409 63.097 47.4885 64.4574 44.5968C65.7277 41.894 66.4229 40.47 67.093 40.1309C67.2998 40.0124 67.5323 39.9424 67.7719 39.9264C68.0116 39.9104 68.2518 39.9489 68.4734 40.0389C69.3186 40.4022 69.6337 41.492 69.6687 41.5937C69.686 41.6554 69.6906 41.7198 69.6822 41.7833C69.6737 41.8467 69.6523 41.9079 69.6193 41.9633C69.5863 42.0186 69.5423 42.0672 69.4898 42.106C69.4373 42.1448 69.3774 42.1732 69.3136 42.1895C69.1856 42.222 69.0495 42.2041 68.9352 42.1396C68.8208 42.0751 68.7375 41.9694 68.7034 41.8456C68.6484 41.6518 68.4184 41.0754 68.0683 40.9253C67.9858 40.8964 67.8973 40.887 67.8103 40.898C67.7233 40.909 67.6403 40.9399 67.5682 40.9883C67.158 41.2159 66.1678 43.3132 65.3776 44.9988C63.7972 48.3555 62.0067 52.1626 60.1513 53.0393C60.0797 53.0729 60.0008 53.0895 59.9212 53.0877Z" fill="#477349"/>
<path d="M53.6443 66.5928L58.2905 69.4893Z" fill="#477349"/>
<path d="M58.2911 69.9738C58.1953 69.9736 58.1015 69.9467 58.021 69.8963L53.3748 66.9901C53.3197 66.9555 53.2721 66.9106 53.2348 66.8581C53.1975 66.8057 53.1713 66.7466 53.1576 66.6843C53.1439 66.622 53.143 66.5577 53.155 66.4951C53.1669 66.4325 53.1915 66.3727 53.2273 66.3193C53.2631 66.2659 53.3094 66.2198 53.3636 66.1837C53.4178 66.1476 53.4788 66.1222 53.5431 66.1089C53.6074 66.0956 53.6738 66.0948 53.7384 66.1064C53.8031 66.1179 53.8648 66.1417 53.92 66.1764L58.5611 69.0826C58.6517 69.1393 58.721 69.2228 58.7586 69.3207C58.7961 69.4186 58.8 69.5256 58.7697 69.6259C58.7393 69.7261 58.6763 69.8141 58.59 69.8768C58.5038 69.9395 58.3989 69.9736 58.2911 69.9738Z" fill="#477349"/>
</g>
</svg>
