<svg width="91" height="78" viewBox="0 0 91 78" fill="none" xmlns="http://www.w3.org/2000/svg">
<g id="Vector">
<path d="M49.0001 21.6374L48.823 60.4491C48.7977 65.4474 44.1925 69.4799 38.5245 69.4538L10.21 69.3233C4.55471 69.2842 -0.025199 65.2125 0.000104345 60.2012L0.177228 21.3895C0.18988 17.3438 3.22628 13.9247 7.37604 12.7893L7.38869 10.7012V9.6311L41.8899 9.80076L41.8772 12.9589C46.0143 14.1465 49.0128 17.5788 49.0001 21.6374Z" fill="url(#paint0_linear_25_2350)"/>
<path d="M44.4582 1.44859V1.73569L44.4329 5.12878L44.4076 8.45662V8.86118C44.4076 9.4876 43.9015 9.99656 43.2942 9.99656H43.0285L36.0195 9.94436L34.3242 9.91826L25.4553 9.853L23.7853 9.8269L6.22474 9.6964H5.95905C5.35177 9.6964 4.85835 9.17439 4.85835 8.54797V8.24781L4.90896 1.53994V1.13538C4.90896 0.508963 5.41503 5.42972e-09 6.03496 1.62891e-09L6.30065 0L18.5222 0.0913523L22.0267 0.130503L36.0448 0.234906L37.9046 0.261007L43.0918 0.300158H43.3575C43.9774 0.313208 44.4582 0.822171 44.4582 1.44859Z" fill="url(#paint1_linear_25_2350)"/>
<path d="M44.4582 1.74872L44.4329 5.12878L44.4076 8.45662L42.902 8.44355L39.0685 8.41745H37.0569L31.389 8.3783H29.3773L23.7094 8.33915H21.6978L16.0172 8.29999H14.0182L8.33757 8.26084H6.3386L4.85835 8.24781L4.90896 1.53994L8.42613 1.55297L16.1057 1.60517L17.9402 1.60517L23.7853 1.64432H25.6198L31.4649 1.68347H33.2994L39.1445 1.72262H40.9789L42.9906 1.73567L44.4582 1.74872Z" fill="url(#paint2_linear_25_2350)"/>
<path d="M48.963 28.504L0.140116 28.2659L0.0377431 50.595L48.8606 50.8332L48.963 28.504Z" fill="white"/>
<path d="M48.9717 28.504L0.148749 28.2659L0.130326 32.2854L48.9532 32.5235L48.9717 28.504Z" fill="white"/>
<path d="M19.1801 37.2439L16.0298 37.2308L16.0424 33.9682L11.7029 33.9552L11.6903 37.2047L8.53999 37.1917L8.51469 41.6549L11.665 41.6679L11.6523 44.9305L15.9918 44.9436L16.0045 41.694L19.1548 41.7071L19.1801 37.2439Z" fill="url(#paint3_linear_25_2350)"/>
<path d="M40.5867 38.3271L24.9745 38.2488C24.557 38.2488 24.2154 37.8965 24.2154 37.4658V37.1004C24.2154 36.6697 24.557 36.3174 24.9745 36.3174L40.5867 36.3957C41.0042 36.3957 41.3458 36.748 41.3458 37.1787V37.5441C41.3458 37.9748 41.0042 38.3271 40.5867 38.3271Z" fill="url(#paint4_linear_25_2350)"/>
<path d="M40.5741 43.1166L24.9619 43.0383C24.5444 43.0383 24.2028 42.6859 24.2028 42.2552V41.8898C24.2028 41.4592 24.5444 41.1068 24.9619 41.1068L40.5741 41.1851C40.9916 41.1851 41.3332 41.5375 41.3332 41.9681V42.3335C41.3332 42.7642 40.9916 43.1166 40.5741 43.1166Z" fill="url(#paint5_linear_25_2350)"/>
<path d="M4.85835 1.4486V1.73571L4.90896 8.44358V8.84814C4.90896 9.47456 5.41503 9.98352 6.02231 9.98352H6.288L43.0538 9.70947H43.3195C43.9268 9.70947 44.4202 9.18745 44.4202 8.56104V8.26088C24.848 9.13525 5.95905 0.300171 5.95905 0.300171C5.35177 0.313221 4.85835 0.822185 4.85835 1.4486Z" fill="#357A38"/>
<path d="M81.1216 42.8431H43.8768V77.8187H81.1216V42.8431Z" fill="url(#paint6_linear_25_2350)"/>
<path d="M43.7228 42.8431C43.7677 42.8431 43.8127 42.86 43.8769 42.8768C43.8769 54.5129 43.8769 66.1489 43.8769 77.8018C40.9936 77.9985 38.5599 77.3636 36.627 75.7342C35.2592 74.5768 34.5978 73.2171 34.5978 71.6776C34.5978 66.2276 34.5978 60.7832 34.5978 55.3332C34.5978 53.2543 34.5914 51.1754 34.5914 49.0966C34.5914 46.5851 36.139 44.759 38.9837 43.5229C40.4478 42.8937 42.0724 42.7982 43.7228 42.8431Z" fill="url(#paint7_linear_25_2350)"/>
<path d="M74.6166 42.8375C76.2798 42.8375 76.4467 42.8375 78.1035 42.8375C78.1035 54.5129 78.1035 66.1489 78.1035 77.8074C66.7952 77.8074 58.2418 77.8074 46.8949 77.8074C46.8949 66.1545 46.8949 54.5185 46.8949 42.8487C48.5517 42.8487 48.9113 42.8487 50.6002 42.8487C50.6002 42.7026 50.6002 42.5903 50.6002 42.4835C50.6002 41.2306 50.6066 39.972 50.5937 38.7191C50.5809 37.8426 50.8506 37.0785 51.634 36.4829C52.1863 36.0671 52.822 35.8536 53.5412 35.8536C55.7695 35.848 57.9913 35.848 60.2196 35.848C63.9633 35.848 67.7135 35.8536 71.4572 35.848C72.4397 35.848 73.2552 36.1289 73.8974 36.7807C74.4111 37.3032 74.6038 37.9156 74.6038 38.6011C74.5973 39.9214 74.6038 41.2418 74.6038 42.5622C74.5973 42.6352 74.6038 42.7195 74.6166 42.8375ZM54.62 42.8375C54.7741 42.8375 54.8897 42.8375 55.0053 42.8375C56.7776 42.8375 58.5564 42.8375 60.3287 42.8375C63.6422 42.8375 66.9622 42.8375 70.2757 42.8431C70.5389 42.8431 70.5967 42.7701 70.5967 42.5509C70.5839 41.5677 70.5967 40.5844 70.5967 39.6012C70.5967 39.5225 70.5839 39.4439 70.571 39.3596C65.2412 39.3596 59.9435 39.3596 54.62 39.3596C54.62 40.517 54.62 41.652 54.62 42.8375Z" fill="white"/>
<path d="M74.6166 42.8375C76.2798 42.8375 76.4467 42.8375 78.1035 42.8375C78.1035 54.5129 78.1035 66.1489 78.1035 77.8074C66.7952 77.8074 58.2418 77.8074 46.8949 77.8074C46.8949 66.1545 46.8949 54.5185 46.8949 42.8487C48.5517 42.8487 48.9113 42.8487 50.6002 42.8487C50.6002 42.7026 50.6002 42.5903 50.6002 42.4835C50.6002 41.2306 50.6066 39.972 50.5937 38.7191C50.5809 37.8426 50.8506 37.0785 51.634 36.4829C52.1863 36.0671 52.822 35.8536 53.5412 35.8536C55.7695 35.848 57.9913 35.848 60.2196 35.848C63.9633 35.848 67.7135 35.8536 71.4572 35.848C72.4397 35.848 73.2552 36.1289 73.8974 36.7807C74.4111 37.3032 74.6038 37.9156 74.6038 38.6011C74.5973 39.9214 74.6038 41.2418 74.6038 42.5622C74.5973 42.6352 74.6038 42.7195 74.6166 42.8375ZM54.62 42.8375C54.7741 42.8375 54.8897 42.8375 55.0053 42.8375C56.7776 42.8375 58.5564 42.8375 60.3287 42.8375C63.6422 42.8375 66.9622 42.8375 70.2757 42.8431C70.5389 42.8431 70.5967 42.7701 70.5967 42.5509C70.5839 41.5677 70.5967 40.5844 70.5967 39.6012C70.5967 39.5225 70.5839 39.4439 70.571 39.3596C65.2412 39.3596 59.9435 39.3596 54.62 39.3596C54.62 40.517 54.62 41.652 54.62 42.8375Z" fill="white"/>
<path d="M75.257 34.2635H49.2949V42.8487H75.257V34.2635Z" fill="url(#paint8_linear_25_2350)"/>
<path d="M90.5869 49.0067C90.5869 46.6918 89.1421 44.9669 86.5734 43.714C84.9938 42.9442 83.2022 42.7982 81.3656 42.8319C81.0831 42.8375 81.1216 42.9667 81.1216 43.1016C81.1216 47.1469 81.1216 51.1867 81.1216 55.232C81.1216 62.3395 81.1216 69.4414 81.1152 76.5489C81.1152 76.959 81.1152 77.3692 81.1152 77.8131C82.271 77.8468 83.3691 77.8524 84.4479 77.6277C88.0953 76.8748 90.5805 74.4981 90.5805 71.6945C90.5933 64.1375 90.5869 56.5693 90.5869 49.0067Z" fill="url(#paint9_linear_25_2350)"/>
<path d="M65.543 62.9126C65.543 63.6374 65.543 64.3229 65.543 65.014C65.543 65.795 65.543 66.5759 65.543 67.3513C65.543 67.8176 65.2733 68.0648 64.7467 68.0648C63.2955 68.0705 61.8442 68.0705 60.393 68.0648C59.9113 68.0648 59.6416 67.8008 59.6416 67.3569C59.6416 65.9635 59.6416 64.5701 59.6416 63.1767C59.6416 63.098 59.6416 63.0138 59.6416 62.9126C59.5196 62.9126 59.4297 62.9126 59.3334 62.9126C57.7666 62.9126 56.1933 62.9126 54.6264 62.9126C54.0036 62.9126 53.7467 62.6935 53.7467 62.1485C53.7467 60.9405 53.7467 59.7325 53.7467 58.5245C53.7467 57.9739 53.9971 57.7548 54.62 57.7548C56.1804 57.7548 57.7409 57.7548 59.3013 57.7548C59.404 57.7548 59.5004 57.7548 59.6352 57.7548C59.6352 57.6649 59.6352 57.5918 59.6352 57.5188C59.6352 56.1254 59.6352 54.732 59.6352 53.3386C59.6352 52.8217 59.8985 52.5969 60.4893 52.5969C61.8699 52.5969 63.2505 52.5969 64.6311 52.5969C65.2797 52.5969 65.5302 52.8104 65.5302 53.3892C65.5366 54.7713 65.5302 56.1479 65.5302 57.53C65.5302 57.5975 65.5302 57.6649 65.5302 57.7604C65.6329 57.7604 65.7228 57.7604 65.8063 57.7604C67.3988 57.7604 68.9914 57.7604 70.5839 57.766C71.1682 57.766 71.4187 57.9908 71.4187 58.502C71.4187 59.7157 71.4187 60.9293 71.4187 62.1429C71.4187 62.6991 71.1747 62.9126 70.5518 62.9126C68.9657 62.9126 67.3795 62.9126 65.7999 62.9182C65.7356 62.9126 65.6586 62.9126 65.543 62.9126Z" fill="url(#paint10_linear_25_2350)"/>
</g>
<defs>
<linearGradient id="paint0_linear_25_2350" x1="0.000192429" y1="-0.482233" x2="52.6773" y2="99.6652" gradientUnits="userSpaceOnUse">
<stop stop-color="#72A374"/>
<stop offset="1" stop-color="#357A38"/>
</linearGradient>
<linearGradient id="paint1_linear_25_2350" x1="-1152.62" y1="-254.051" x2="-56.2717" y2="-232.301" gradientUnits="userSpaceOnUse">
<stop stop-color="#C8E6C9"/>
<stop offset="0.0525488" stop-color="#72A374"/>
<stop offset="0.2879" stop-color="#72A374"/>
<stop offset="0.5247" stop-color="#357A38"/>
<stop offset="0.7618" stop-color="#357A38"/>
<stop offset="1" stop-color="#357A38"/>
</linearGradient>
<linearGradient id="paint2_linear_25_2350" x1="0.0125029" y1="38.882" x2="90.5923" y2="38.882" gradientUnits="userSpaceOnUse">
<stop stop-color="#C8E6C9"/>
<stop offset="0.0525488" stop-color="#72A374"/>
<stop offset="0.2879" stop-color="#72A374"/>
<stop offset="0.5247" stop-color="#357A38"/>
<stop offset="0.7618" stop-color="#357A38"/>
<stop offset="1" stop-color="#357A38"/>
</linearGradient>
<linearGradient id="paint3_linear_25_2350" x1="75.5523" y1="8.91227" x2="22.9797" y2="79.3852" gradientUnits="userSpaceOnUse">
<stop stop-color="#72A374"/>
<stop offset="1" stop-color="#357A38"/>
</linearGradient>
<linearGradient id="paint4_linear_25_2350" x1="91.3847" y1="38.7534" x2="-7.04877" y2="38.7534" gradientUnits="userSpaceOnUse">
<stop stop-color="#72A374"/>
<stop offset="1" stop-color="#357A38"/>
</linearGradient>
<linearGradient id="paint5_linear_25_2350" x1="-0.0061552" y1="38.7433" x2="90.5899" y2="38.7433" gradientUnits="userSpaceOnUse">
<stop stop-color="#72A374"/>
<stop offset="1" stop-color="#357A38"/>
</linearGradient>
<linearGradient id="paint6_linear_25_2350" x1="0.00226471" y1="38.9136" x2="90.5842" y2="38.9136" gradientUnits="userSpaceOnUse">
<stop stop-color="#C8E6C9"/>
<stop offset="1" stop-color="#C8E6C9"/>
</linearGradient>
<linearGradient id="paint7_linear_25_2350" x1="0.0626476" y1="38.9167" x2="90.5976" y2="38.9167" gradientUnits="userSpaceOnUse">
<stop stop-color="#72A374"/>
<stop offset="1" stop-color="#357A38"/>
</linearGradient>
<linearGradient id="paint8_linear_25_2350" x1="-0.00938822" y1="38.91" x2="90.5846" y2="38.91" gradientUnits="userSpaceOnUse">
<stop stop-color="#72A374"/>
<stop offset="1" stop-color="#357A38"/>
</linearGradient>
<linearGradient id="paint9_linear_25_2350" x1="0.0151058" y1="38.9225" x2="90.5781" y2="38.9225" gradientUnits="userSpaceOnUse">
<stop stop-color="#72A374"/>
<stop offset="1" stop-color="#357A38"/>
</linearGradient>
<linearGradient id="paint10_linear_25_2350" x1="53.7506" y1="60.3365" x2="71.4315" y2="60.3365" gradientUnits="userSpaceOnUse">
<stop stop-color="#72A374"/>
<stop offset="1" stop-color="#357A38"/>
</linearGradient>
</defs>
</svg>
