<svg width="30" height="31" viewBox="0 0 30 31" fill="none" xmlns="http://www.w3.org/2000/svg">
<g id="InstagramVector">
<g id="Instagram">
<path d="M20.1418 15.4425C20.1418 18.2614 17.8565 20.5466 15.0376 20.5466C12.2186 20.5466 9.93343 18.2614 9.93343 15.4425C9.93343 12.6236 12.2186 10.3384 15.0376 10.3384C17.8565 10.3384 20.1418 12.6236 20.1418 15.4425Z" fill="#357A38"/>
<path fill-rule="evenodd" clip-rule="evenodd" d="M10.0816 10.5241C11.4037 9.20198 13.1615 8.46605 15.0312 8.46605C16.901 8.46605 18.6588 9.20585 19.9809 10.528C20.8198 11.3668 21.4191 12.3749 21.7454 13.4999H27V6.43746C27 4.78061 25.7194 3.5 24.0625 3.5H6.0625C4.40562 3.5 3 4.78061 3 6.43746V13.4999H8.317C8.64337 12.3749 9.24268 11.3629 10.0816 10.5241ZM24.9991 8.69951C24.9991 9.14123 24.6411 9.49935 24.1993 9.49935H21.7997C21.358 9.49935 20.9999 9.1413 20.9999 8.69951V6.29998C20.9999 5.85826 21.3579 5.50014 21.7997 5.50014H24.1993C24.641 5.50014 24.9991 5.85819 24.9991 6.29998V8.69951Z" fill="#357A38"/>
<path fill-rule="evenodd" clip-rule="evenodd" d="M19.9809 20.4238C18.6588 21.7459 16.901 22.4662 15.0313 22.4662C13.1615 22.4662 11.4037 21.7498 10.0816 20.4277C8.76188 19.108 8.03413 17.3126 8.03138 15.5002H3.00001V24.4375C3.00001 26.0944 4.40564 27.5 6.06251 27.5H24.0625C25.7194 27.5 27 26.0944 27 24.4375V15.5002H21.7997C21.797 17.3126 21.3007 19.1041 19.9809 20.4238Z" fill="#357A38"/>
</g>
</g>
</svg>
