<svg width="30" height="31" viewBox="0 0 30 31" fill="none" xmlns="http://www.w3.org/2000/svg">
<g id="Social">
<path id="Vector" d="M24.3333 3.5C25.0406 3.5 25.7189 3.78094 26.2189 4.28106C26.719 4.78115 27 5.45942 27 6.16667V24.8333C27 25.5406 26.719 26.2189 26.2189 26.7189C25.7189 27.219 25.0406 27.5 24.3333 27.5H5.66667C4.95942 27.5 4.28115 27.219 3.78106 26.7189C3.28094 26.2189 3 25.5406 3 24.8333V6.16667C3 5.45942 3.28094 4.78115 3.78106 4.28106C4.28115 3.78094 4.95942 3.5 5.66667 3.5H24.3333ZM23.6667 24.1667V17.1C23.6667 15.9472 23.2086 14.8416 22.3936 14.0264C21.5784 13.2113 20.4728 12.7533 19.32 12.7533C18.1867 12.7533 16.8667 13.4467 16.2267 14.4867V13.0067H12.5067V24.1667H16.2267V17.5933C16.2267 16.5667 17.0533 15.7267 18.08 15.7267C18.575 15.7267 19.0499 15.9234 19.4 16.2734C19.7501 16.6235 19.9467 17.0982 19.9467 17.5933V24.1667H23.6667ZM8.17333 10.9133C8.76742 10.9133 9.33717 10.6773 9.75725 10.2572C10.1773 9.83717 10.4133 9.26742 10.4133 8.67333C10.4133 7.43333 9.41333 6.42 8.17333 6.42C7.57571 6.42 7.00256 6.65741 6.57998 7.07998C6.15741 7.50256 5.92 8.07571 5.92 8.67333C5.92 9.91333 6.93333 10.9133 8.17333 10.9133ZM10.0267 24.1667V13.0067H6.33333V24.1667H10.0267Z" fill="#357A38"/>
</g>
</svg>
