<svg width="46" height="47" viewBox="0 0 46 47" fill="none" xmlns="http://www.w3.org/2000/svg">
<g id="bxs:phone-call">
<rect width="46" height="46" transform="translate(0 0.0704346)" fill="#72A374"/>
<path id="Vector" d="M38.3333 21.1518H42.1666C42.1666 11.3193 34.7434 3.90375 24.8975 3.90375V7.73708C32.683 7.73708 38.3333 13.3778 38.3333 21.1518Z" fill="white"/>
<path id="Vector_2" d="M24.9167 15.4038C28.9475 15.4038 30.6667 17.123 30.6667 21.1538H34.5001C34.5001 14.9725 31.098 11.5704 24.9167 11.5704V15.4038ZM31.4756 25.8362C31.1073 25.5014 30.6233 25.3229 30.1258 25.3383C29.6284 25.3537 29.1564 25.5617 28.8095 25.9186L24.2229 30.6355C23.1189 30.4247 20.8994 29.7328 18.6147 27.4538C16.3301 25.1673 15.6381 22.942 15.4331 21.8457L20.1461 17.2572C20.5034 16.9105 20.7118 16.4384 20.7272 15.9408C20.7426 15.4432 20.5637 14.9592 20.2286 14.5911L13.1465 6.80367C12.8111 6.43444 12.3451 6.21047 11.8473 6.17934C11.3495 6.1482 10.8591 6.31235 10.4804 6.63692L6.32122 10.2038C5.98985 10.5364 5.79206 10.979 5.76539 11.4478C5.73664 11.9269 5.18847 23.2774 13.9898 32.0826C21.668 39.7588 31.2858 40.3204 33.9346 40.3204C34.3218 40.3204 34.5595 40.3089 34.6227 40.3051C35.0914 40.2789 35.5338 40.0802 35.8647 39.7473L39.4297 35.5863C39.7545 35.2078 39.919 34.7176 39.8882 34.2198C39.8575 33.722 39.6338 33.2558 39.2649 32.9202L31.4756 25.8362Z" fill="white"/>
</g>
</svg>
