<svg width="103" height="81" viewBox="0 0 103 81" fill="none" xmlns="http://www.w3.org/2000/svg">
<g id="Vector">
<path d="M102.821 72.7776H0.179243C0.131705 72.7776 0.0861133 72.7591 0.0524988 72.7262C0.0188843 72.6933 0 72.6487 0 72.6021C0 72.5556 0.0188843 72.511 0.0524988 72.4781C0.0861133 72.4451 0.131705 72.4267 0.179243 72.4267H102.821C102.868 72.4267 102.914 72.4451 102.948 72.4781C102.981 72.511 103 72.5556 103 72.6021C103 72.6487 102.981 72.6933 102.948 72.7262C102.914 72.7591 102.868 72.7776 102.821 72.7776Z" fill="#424242"/>
<path d="M51.5001 11.3811C51.898 10.7985 52.2529 10.251 52.6329 9.72102C55.1997 6.18688 58.4189 3.40378 62.5128 1.67356C65.614 0.354629 69.0028 -0.184635 72.3711 0.104774C77.458 0.511886 81.853 2.41759 85.4307 6.00789C88.3979 8.98607 90.3029 12.8231 90.8618 16.9473C91.2669 19.618 91.1091 22.2923 90.8618 24.9666C90.6356 27.5685 90.0792 30.1327 89.2056 32.6C87.7967 36.5342 85.4845 39.928 82.6776 43.0234C79.8097 46.1821 76.6335 48.9897 73.4107 51.7623C67.8136 56.5915 62.2152 61.4195 56.6157 66.2463C54.9738 67.6502 53.3893 69.1663 51.7905 70.6298L51.4965 70.8965L50.3099 69.8015C44.8825 64.7828 39.2614 59.9747 33.6224 55.1982C29.9372 52.0781 26.2376 48.9792 22.7962 45.596C20.2868 43.1392 17.9781 40.5211 16.1535 37.5239C14.2421 34.3562 12.976 30.8557 12.4252 27.2163C11.985 24.5203 11.8193 21.7881 11.9305 19.06C12.289 10.7388 17.5264 3.73017 25.3235 1.2138C33.7407 -1.50612 41.1506 0.39958 47.503 6.38341C48.9575 7.78185 50.2269 9.35357 51.2814 11.0617C51.3352 11.1529 51.3961 11.2407 51.5001 11.3811Z" fill="#357A38"/>
<path d="M50.012 48.1089H49.9726C49.8188 48.1002 49.672 48.0433 49.5538 47.9466C49.4357 47.8499 49.3525 47.7185 49.3165 47.5719L41.9819 17.6738L37.2105 35.0181C37.17 35.1654 37.0816 35.2957 36.9587 35.3895C36.8358 35.4832 36.6851 35.5351 36.5294 35.5375C36.3967 35.5375 23.0467 35.7622 15.2748 35.7376C15.0846 35.7376 14.9022 35.6636 14.7678 35.532C14.6333 35.4004 14.5578 35.2218 14.5578 35.0357C14.5578 34.8495 14.6333 34.671 14.7678 34.5393C14.9022 34.4077 15.0846 34.3338 15.2748 34.3338C22.1398 34.3583 33.3783 34.1828 35.963 34.1407L41.3402 14.645C41.3822 14.4919 41.476 14.3572 41.6062 14.2629C41.7364 14.1685 41.8953 14.1202 42.0572 14.1256C42.2171 14.1277 42.3716 14.182 42.4963 14.2799C42.621 14.3778 42.7087 14.5137 42.7455 14.6661L50.1733 44.9608L53.9804 34.597C54.0305 34.4613 54.1221 34.3441 54.2427 34.2612C54.3633 34.1783 54.507 34.1338 54.6544 34.1337H57.9453L60.763 28.7956C60.8218 28.6843 60.91 28.5904 61.0185 28.5238C61.1269 28.4571 61.2516 28.4201 61.3796 28.4166C61.5083 28.4136 61.6355 28.4446 61.7478 28.5064C61.8601 28.5681 61.9533 28.6583 62.0177 28.7676L65.3587 34.253H88.2444C88.4346 34.253 88.617 34.327 88.7514 34.4586C88.8859 34.5903 88.9614 34.7688 88.9614 34.9549C88.9614 35.1411 88.8859 35.3196 88.7514 35.4513C88.617 35.5829 88.4346 35.6569 88.2444 35.6569H64.9429C64.8178 35.6561 64.695 35.6233 64.5869 35.5618C64.4787 35.5002 64.3889 35.412 64.3263 35.3059L61.4333 30.5645L59.01 35.1585C58.9494 35.2729 58.8578 35.3689 58.7453 35.4357C58.6327 35.5026 58.5035 35.5378 58.3719 35.5375H55.1455L50.7003 47.6456C50.6494 47.7835 50.5556 47.9024 50.4322 47.9855C50.3087 48.0686 50.1618 48.1117 50.012 48.1089Z" fill="#303030"/>
<path d="M16.0061 78.3299H6.68548L5.29098 59.8485H17.4006L16.0061 78.3299Z" fill="#C8E6C9"/>
<path d="M16.0097 78.5053H6.6891C6.64395 78.5054 6.6004 78.4889 6.56717 78.4589C6.53394 78.429 6.51347 78.3879 6.50986 78.3438L5.11177 59.8624C5.10978 59.8382 5.11295 59.8139 5.12106 59.7909C5.12918 59.768 5.14207 59.7469 5.15891 59.7291C5.17576 59.7113 5.1962 59.6971 5.21893 59.6874C5.24167 59.6778 5.26621 59.6728 5.29101 59.6729H17.4006C17.425 59.6728 17.4491 59.6777 17.4713 59.6874C17.4936 59.6971 17.5135 59.7113 17.5297 59.729C17.5473 59.7465 17.5609 59.7674 17.5695 59.7904C17.5782 59.8134 17.5817 59.8379 17.5799 59.8624L16.1818 78.3438C16.1791 78.387 16.1599 78.4276 16.128 78.4575C16.0961 78.4874 16.0539 78.5045 16.0097 78.5053ZM6.85759 78.1543H15.8412L17.2106 60.0238H5.48459L6.85759 78.1543Z" fill="#303030"/>
<path d="M7.06931 65.3302L7.89024 76.9925H14.8018L15.6192 65.3302H7.06931Z" fill="#357A38"/>
<path d="M9.58537 76.8209C9.45349 76.8215 9.3261 76.7741 9.22801 76.6878C9.12992 76.6015 9.06817 76.4825 9.05481 76.3541L6.59918 54.9632L1.32587 55.6651C1.18325 55.6837 1.03892 55.6461 0.924635 55.5606C0.810345 55.475 0.735456 55.3485 0.71644 55.2089C0.697425 55.0693 0.735841 54.928 0.823239 54.8161C0.910637 54.7042 1.03986 54.6309 1.18247 54.6123L6.9971 53.8472C7.06835 53.8373 7.14088 53.8416 7.21041 53.8597C7.27993 53.8779 7.34504 53.9095 7.40187 53.9527C7.45869 53.9959 7.50609 54.0498 7.54124 54.1112C7.5764 54.1727 7.5986 54.2404 7.60653 54.3104L10.1159 76.2348C10.1249 76.3035 10.1199 76.3733 10.1011 76.4402C10.0823 76.507 10.0501 76.5695 10.0064 76.624C9.96269 76.6786 9.90835 76.724 9.84654 76.7578C9.78472 76.7916 9.71666 76.8131 9.64631 76.8209H9.58537Z" fill="#303030"/>
<path d="M28.1235 54.5876V52.1309C28.1235 51.7824 28.0534 51.4374 27.9172 51.1155C27.781 50.7936 27.5814 50.5011 27.3297 50.2547C27.0781 50.0084 26.7793 49.8129 26.4505 49.6796C26.1217 49.5463 25.7693 49.4776 25.4134 49.4776H18.9284C18.5726 49.4776 18.2204 49.5463 17.8918 49.6797C17.5632 49.813 17.2647 50.0085 17.0133 50.255C16.7619 50.5014 16.5626 50.7939 16.4268 51.1158C16.291 51.4377 16.2213 51.7826 16.2218 52.1309V54.5876C16.2211 55.041 16.3394 55.487 16.5654 55.8828C16.7914 56.2785 17.1175 56.6108 17.5124 56.8477C17.5711 56.8772 17.6204 56.9219 17.6548 56.9771C17.6892 57.0322 17.7074 57.0955 17.7074 57.1601C17.7074 57.2247 17.6892 57.288 17.6548 57.3431C17.6204 57.3983 17.5711 57.443 17.5124 57.4725C17.1104 57.7346 16.781 58.09 16.5533 58.507C16.3256 58.924 16.2068 59.3897 16.2075 59.8625V76.9015C16.2075 77.0894 16.2453 77.2754 16.3189 77.4489C16.3924 77.6225 16.5002 77.7801 16.6361 77.9128C16.7719 78.0455 16.9332 78.1506 17.1106 78.2222C17.2881 78.2937 17.4782 78.3303 17.6701 78.3299H26.6322C27.0192 78.3299 27.3903 78.1794 27.6639 77.9115C27.9375 77.6436 28.0913 77.2803 28.0913 76.9015V59.8625C28.0919 59.3897 27.9731 58.924 27.7454 58.507C27.5178 58.09 27.1883 57.7346 26.7864 57.4725C26.7277 57.443 26.6784 57.3983 26.644 57.3431C26.6096 57.288 26.5913 57.2247 26.5913 57.1601C26.5913 57.0955 26.6096 57.0322 26.644 56.9771C26.6784 56.9219 26.7277 56.8772 26.7864 56.8477C27.1897 56.6162 27.5248 56.2863 27.7592 55.8902C27.9935 55.4941 28.119 55.0453 28.1235 54.5876Z" fill="#C8E6C9"/>
<path d="M25.4125 49.4913C26.1312 49.4913 26.8206 49.7709 27.3288 50.2684C27.8371 50.766 28.1226 51.4409 28.1226 52.1446V54.6013C28.1226 55.055 28.0036 55.501 27.777 55.8968C27.5504 56.2925 27.2238 56.6247 26.8285 56.8614C26.7698 56.8909 26.7205 56.9356 26.6861 56.9907C26.6517 57.0459 26.6334 57.1092 26.6334 57.1738C26.6334 57.2384 26.6517 57.3017 26.6861 57.3568C26.7205 57.4119 26.7698 57.4567 26.8285 57.4861C27.2304 57.7483 27.5599 58.1037 27.7875 58.5207C28.0152 58.9377 28.134 59.4033 28.1334 59.8762V76.9152C28.1334 77.294 27.9796 77.6573 27.706 77.9252C27.4324 78.1931 27.0613 78.3436 26.6743 78.3436H17.7122C17.5203 78.344 17.3302 78.3074 17.1527 78.2359C16.9753 78.1643 16.814 78.0591 16.6782 77.9264C16.5423 77.7938 16.4345 77.6361 16.361 77.4626C16.2874 77.2891 16.2496 77.1031 16.2496 76.9152V59.8621C16.2489 59.3893 16.3677 58.9237 16.5954 58.5067C16.8231 58.0897 17.1525 57.7343 17.5545 57.4721C17.6132 57.4427 17.6625 57.3979 17.6969 57.3428C17.7313 57.2877 17.7495 57.2243 17.7495 57.1598C17.7495 57.0952 17.7313 57.0318 17.6969 56.9767C17.6625 56.9216 17.6132 56.8769 17.5545 56.8474C17.1596 56.6105 16.8335 56.2782 16.6075 55.8824C16.3815 55.4866 16.2632 55.0406 16.2639 54.5872V52.1305C16.2634 51.7823 16.3331 51.4373 16.4689 51.1154C16.6047 50.7936 16.804 50.501 17.0554 50.2546C17.3068 50.0082 17.6053 49.8127 17.9339 49.6793C18.2625 49.5459 18.6147 49.4773 18.9705 49.4773H25.4555M25.4555 49.1544H18.9275C18.1221 49.1563 17.3504 49.4705 16.7812 50.0284C16.2121 50.5862 15.892 51.3421 15.8911 52.1305V54.5872C15.8878 55.0946 16.018 55.5942 16.2692 56.038C16.5203 56.4818 16.8839 56.8548 17.325 57.1211C17.3338 57.1242 17.3414 57.1299 17.3466 57.1375C17.3517 57.1451 17.3542 57.1542 17.3537 57.1633C17.3548 57.1716 17.3534 57.18 17.3495 57.1875C17.3457 57.195 17.3397 57.2013 17.3322 57.2054C16.8847 57.4964 16.5176 57.8913 16.2637 58.3548C16.0098 58.8183 15.8768 59.3361 15.8767 59.8621V76.9011C15.8767 77.3665 16.0656 77.8129 16.4017 78.142C16.7379 78.471 17.1938 78.6559 17.6692 78.6559H26.6313C27.1067 78.6559 27.5626 78.471 27.8987 78.142C28.2349 77.8129 28.4237 77.3665 28.4237 76.9011V59.8621C28.4251 59.3382 28.295 58.822 28.045 58.3588C27.795 57.8956 27.4327 57.4995 26.9898 57.2054C26.9817 57.2018 26.9749 57.1958 26.9704 57.1882C26.9659 57.1807 26.9639 57.172 26.9647 57.1633C26.9651 57.1544 26.968 57.1457 26.9731 57.1383C26.9781 57.1309 26.9851 57.125 26.9934 57.1211C27.4345 56.8548 27.7981 56.4818 28.0493 56.038C28.3004 55.5942 28.4306 55.0946 28.4273 54.5872V52.1305C28.4264 51.3421 28.1063 50.5862 27.5372 50.0284C26.968 49.4705 26.1963 49.1563 25.3909 49.1544H25.4555Z" fill="#303030"/>
<path d="M26.1483 55.7631C26.355 55.641 26.5257 55.4685 26.6438 55.2624C26.762 55.0563 26.8234 54.8237 26.8222 54.5874V54.5523H17.5195V54.5874C17.5183 54.8237 17.5798 55.0563 17.6979 55.2624C17.8161 55.4685 17.9868 55.641 18.1935 55.7631C18.434 55.9071 18.6336 56.1081 18.7739 56.3476C18.9141 56.5871 18.9904 56.8573 18.9958 57.1332C19.0011 57.4092 18.9353 57.6821 18.8045 57.9266C18.6737 58.1711 18.482 58.3794 18.2473 58.5322C18.0254 58.6792 17.8439 58.8775 17.7188 59.1095C17.5938 59.3414 17.529 59.6 17.5303 59.8623V76.9013C17.5303 76.9224 17.5346 76.9432 17.5429 76.9626C17.5512 76.982 17.5634 76.9996 17.5788 77.0143C17.5942 77.029 17.6124 77.0405 17.6324 77.0483C17.6524 77.056 17.6737 77.0597 17.6952 77.0593H26.6573C26.7001 77.0593 26.7412 77.0426 26.7714 77.013C26.8017 76.9834 26.8186 76.9432 26.8186 76.9013V59.8623C26.8199 59.6 26.7552 59.3414 26.6301 59.1095C26.5051 58.8775 26.3236 58.6792 26.1017 58.5322C25.8669 58.3794 25.6752 58.1711 25.5444 57.9266C25.4136 57.6821 25.3478 57.4092 25.3532 57.1332C25.3586 56.8573 25.4349 56.5871 25.5751 56.3476C25.7153 56.1081 25.9149 55.9071 26.1555 55.7631H26.1483Z" fill="#357A38"/>
<path d="M16.2217 63.7195H28.1234V70.7878H16.2217V63.7195Z" fill="#C8E6C9"/>
<path d="M28.1234 63.7195V70.7878H16.2217V63.7195H28.1234ZM28.1231 63.3685H16.2214C16.1263 63.3685 16.0352 63.4055 15.9679 63.4713C15.9007 63.5371 15.8629 63.6264 15.8629 63.7195V70.7877C15.8629 70.8808 15.9007 70.9701 15.9679 71.0359C16.0352 71.1017 16.1263 71.1387 16.2214 71.1387H28.1231C28.2182 71.1387 28.3094 71.1017 28.3766 71.0359C28.4439 70.9701 28.4816 70.8808 28.4816 70.7877V63.7195C28.4816 63.6264 28.4439 63.5371 28.3766 63.4713C28.3094 63.4055 28.2182 63.3685 28.1231 63.3685Z" fill="#303030"/>
<path d="M19.545 46.3156H24.7969V49.4918H19.545V46.3156Z" fill="#303030"/>
<path d="M66.9149 66.8183C66.9163 69.4636 65.9876 72.0288 64.2849 74.0828C62.5822 76.1369 60.2092 77.5545 57.5646 78.0975C54.9201 78.6406 52.1653 78.2759 49.763 77.0648C47.3607 75.8538 45.4575 73.8701 44.373 71.4472C43.2886 69.0242 43.0891 66.3097 43.808 63.7597C44.5269 61.2098 46.1205 58.9797 48.3209 57.4444C50.5213 55.9091 53.1945 55.1621 55.8911 55.3289C58.5878 55.4956 61.1437 56.566 63.1293 58.3602C64.3251 59.4358 65.2792 60.7433 65.9309 62.1994C66.5826 63.6556 66.9177 65.2285 66.9149 66.8183Z" fill="#C8E6C9"/>
<path d="M55.1706 78.5051C52.387 78.5032 49.6916 77.5493 47.5502 75.8084C45.4087 74.0674 43.9558 71.6487 43.4425 68.9704C42.9292 66.292 43.3878 63.5222 44.739 61.1397C46.0902 58.7573 48.2492 56.9118 50.8427 55.9222C53.4363 54.9327 56.3015 54.8612 58.9431 55.7203C61.5847 56.5793 63.8368 58.3149 65.3102 60.6269C66.7835 62.939 67.3855 65.6824 67.0121 68.3828C66.6387 71.0833 65.3134 73.5712 63.2652 75.4166C61.062 77.4096 58.1703 78.513 55.1706 78.5051ZM55.1706 55.4822C52.4698 55.4805 49.8533 56.4026 47.7732 58.089C45.6931 59.7754 44.2801 62.1203 43.7785 64.7183C43.2769 67.3164 43.7181 70.0044 45.0259 72.3178C46.3337 74.6312 48.4259 76.4246 50.9409 77.3881C53.456 78.3517 56.2359 78.4248 58.8001 77.5948C61.3644 76.7648 63.5519 75.0839 64.9846 72.8426C66.4174 70.6012 67.0053 67.9403 66.6469 65.3196C66.2884 62.699 65.006 60.2832 63.0214 58.4899C60.8858 56.5536 58.0814 55.4792 55.1706 55.4822Z" fill="#303030"/>
<path d="M47.1978 75.452C47.1527 75.4523 47.1092 75.436 47.0759 75.4063C45.8644 74.3126 44.8975 72.985 44.2362 71.5072C43.5749 70.0294 43.2335 68.4335 43.2335 66.8202C43.2335 65.2068 43.5749 63.6109 44.2362 62.1331C44.8975 60.6553 45.8644 59.3277 47.0759 58.234C47.109 58.2039 47.1526 58.1871 47.1978 58.1871C47.243 58.1871 47.2865 58.2039 47.3197 58.234C48.5311 59.3277 49.498 60.6553 50.1593 62.1331C50.8207 63.6109 51.1621 65.2068 51.1621 66.8202C51.1621 68.4335 50.8207 70.0294 50.1593 71.5072C49.498 72.985 48.5311 74.3126 47.3197 75.4063C47.2863 75.436 47.2428 75.4523 47.1978 75.452ZM47.1978 58.606C46.0585 59.6644 45.1512 60.9389 44.5312 62.3517C43.9112 63.7644 43.5915 65.286 43.5915 66.8237C43.5915 68.3613 43.9112 69.8829 44.5312 71.2957C45.1512 72.7085 46.0585 73.9829 47.1978 75.0413C48.3371 73.9829 49.2443 72.7085 49.8643 71.2957C50.4843 69.8829 50.8041 68.3613 50.8041 66.8237C50.8041 65.286 50.4843 63.7644 49.8643 62.3517C49.2443 60.9389 48.3371 59.6644 47.1978 58.606Z" fill="#303030"/>
<path d="M63.1433 75.452C63.0982 75.4523 63.0547 75.436 63.0214 75.4063C61.8099 74.3126 60.843 72.985 60.1817 71.5072C59.5204 70.0294 59.179 68.4335 59.179 66.8202C59.179 65.2068 59.5204 63.6109 60.1817 62.1331C60.843 60.6553 61.8099 59.3277 63.0214 58.234C63.0545 58.2039 63.0981 58.1871 63.1433 58.1871C63.1885 58.1871 63.232 58.2039 63.2652 58.234C64.4766 59.3277 65.4435 60.6553 66.1048 62.1331C66.7662 63.6109 67.1076 65.2068 67.1076 66.8202C67.1076 68.4335 66.7662 70.0294 66.1048 71.5072C65.4435 72.985 64.4766 74.3126 63.2652 75.4063C63.2322 75.4366 63.1885 75.453 63.1433 75.452ZM63.1433 58.606C62.004 59.6644 61.0967 60.9389 60.4767 62.3517C59.8567 63.7644 59.537 65.286 59.537 66.8237C59.537 68.3613 59.8567 69.8829 60.4767 71.2957C61.0967 72.7084 62.004 73.9829 63.1433 75.0413C64.2826 73.9829 65.1898 72.7084 65.8098 71.2957C66.4298 69.8829 66.7496 68.3613 66.7496 66.8237C66.7496 65.286 66.4298 63.7644 65.8098 62.3517C65.1898 60.9389 64.2826 59.6644 63.1433 58.606Z" fill="#303030"/>
<path d="M55.1706 78.5051C55.123 78.5051 55.0777 78.4867 55.0441 78.4538C55.0105 78.4209 54.9916 78.3762 54.9916 78.3297V55.3069C54.9916 55.2603 55.0105 55.2157 55.0441 55.1828C55.0777 55.1499 55.1233 55.1314 55.1708 55.1314C55.2184 55.1314 55.264 55.1499 55.2976 55.1828C55.3312 55.2157 55.3501 55.2603 55.3501 55.3069V78.3297C55.3501 78.3762 55.3312 78.4209 55.2976 78.4538C55.264 78.4867 55.2181 78.5051 55.1706 78.5051Z" fill="#303030"/>
<path d="M55.1712 68.7733C47.2486 68.7733 43.3734 66.9975 43.3411 66.9764C43.2992 66.956 43.2671 66.9204 43.2517 66.8771C43.2363 66.8338 43.2388 66.7863 43.2587 66.7448C43.2687 66.7237 43.2829 66.7048 43.3004 66.6891C43.3179 66.6735 43.3384 66.6614 43.3608 66.6535C43.3831 66.6457 43.4069 66.6423 43.4306 66.6435C43.4543 66.6447 43.4775 66.6505 43.4989 66.6606C43.5347 66.6606 47.349 68.4154 55.1783 68.4154C63.0076 68.4154 66.8219 66.6606 66.8578 66.6606C66.8792 66.6505 66.9024 66.6447 66.9261 66.6435C66.9498 66.6423 66.9735 66.6457 66.9958 66.6535C67.0182 66.6614 67.0387 66.6735 67.0563 66.6891C67.0738 66.7048 67.088 66.7237 67.098 66.7448C67.1083 66.7653 67.1143 66.7876 67.1158 66.8103C67.1172 66.8331 67.114 66.856 67.1063 66.8775C67.0987 66.8991 67.0867 66.919 67.0711 66.9359C67.0555 66.9529 67.0366 66.9667 67.0155 66.9764C66.9689 66.994 63.0937 68.7733 55.1712 68.7733Z" fill="#303030"/>
<path d="M42.4656 70.2541C42.2583 70.2541 42.0596 70.1735 41.913 70.03C41.7664 69.8866 41.6841 69.692 41.6841 69.489V58.9217C41.6841 57.694 41.1859 56.5165 40.2992 55.6484C39.4124 54.7803 38.2097 54.2926 36.9557 54.2926C35.7016 54.2926 34.4989 54.7803 33.6122 55.6484C32.7254 56.5165 32.2273 57.694 32.2273 58.9217V69.4961C32.2138 69.6905 32.1254 69.8726 31.98 70.0057C31.8346 70.1387 31.643 70.2128 31.444 70.2128C31.2449 70.2128 31.0533 70.1387 30.9079 70.0057C30.7625 69.8726 30.6741 69.6905 30.6607 69.4961V58.9217C30.6607 57.2868 31.3241 55.7188 32.505 54.5627C33.6858 53.4066 35.2875 52.7571 36.9575 52.7571C38.6275 52.7571 40.2291 53.4066 41.41 54.5627C42.5909 55.7188 43.2543 57.2868 43.2543 58.9217V69.4961C43.2533 69.5965 43.2322 69.6958 43.192 69.7883C43.1519 69.8808 43.0935 69.9646 43.0203 70.035C42.9471 70.1054 42.8604 70.161 42.7652 70.1986C42.67 70.2362 42.5682 70.2551 42.4656 70.2541Z" fill="#303030"/>
<path d="M36.9562 60.4168C33.8646 60.4196 30.9005 61.6234 28.7147 63.7639C26.5289 65.9045 25.3002 68.8067 25.2983 71.8334C25.2931 74.4125 26.1901 76.9156 27.8399 78.9263C27.8577 78.9489 27.8805 78.9672 27.9066 78.98C27.9327 78.9928 27.9614 78.9996 27.9905 79H45.9434C45.9726 78.9996 46.0013 78.9928 46.0273 78.98C46.0534 78.9672 46.0762 78.9489 46.094 78.9263C47.7426 76.9151 48.6382 74.4121 48.6321 71.8334C48.6292 68.804 47.3977 65.8996 45.2083 63.7588C43.0188 61.6179 40.0507 60.4158 36.9562 60.4168Z" fill="#303030"/>
<path d="M34.0217 70.2922H32.5014L32.4852 70.882C32.5681 70.8531 32.6818 70.8387 32.826 70.8387C33.0208 70.8387 33.1994 70.8675 33.3617 70.9252C33.524 70.9829 33.6628 71.0677 33.7783 71.1795C33.8973 71.2877 33.9893 71.4212 34.0542 71.5799C34.1191 71.735 34.1516 71.9099 34.1516 72.1047C34.1516 72.3211 34.1137 72.5141 34.038 72.6836C33.9658 72.8531 33.8648 72.9974 33.735 73.1164C33.6051 73.2318 33.45 73.3202 33.2697 73.3815C33.0929 73.4428 32.9 73.4735 32.6908 73.4735C32.3589 73.4735 32.0812 73.3923 31.8576 73.23C31.634 73.0677 31.4807 72.8225 31.3977 72.4942L32.2471 72.2995C32.2688 72.4365 32.3265 72.5483 32.4203 72.6349C32.514 72.7179 32.6313 72.7593 32.7719 72.7593C32.9451 72.7593 33.0821 72.7052 33.1831 72.597C33.2877 72.4888 33.34 72.3518 33.34 72.1858C33.34 72.0596 33.313 71.9568 33.2589 71.8775C33.2084 71.7945 33.1398 71.7296 33.0533 71.6827C32.9703 71.6322 32.8765 71.5979 32.7719 71.5799C32.6673 71.5619 32.5627 71.5528 32.4581 71.5528C32.3247 71.5528 32.1894 71.5655 32.0524 71.5907C31.9189 71.616 31.7891 71.6502 31.6628 71.6935L31.7061 69.5781H34.0217V70.2922Z" fill="#C8E6C9"/>
<path d="M31.6466 76.5781H32.4906V78.1687L33.9784 76.5781H35.0821L33.3779 78.3581L35.2282 80.4086H34.0488L32.4906 78.5907V80.4086H31.6466V76.5781Z" fill="#C8E6C9"/>
<path d="M38.9867 80.1381C38.7378 80.2679 38.4781 80.3617 38.2076 80.4194C37.9371 80.4771 37.6611 80.506 37.3798 80.506C37.0804 80.506 36.8045 80.4591 36.552 80.3653C36.2995 80.2715 36.0813 80.1381 35.8974 79.9649C35.7134 79.7882 35.5691 79.5754 35.4645 79.3265C35.3635 79.0776 35.3131 78.7999 35.3131 78.4933C35.3131 78.1867 35.3635 77.909 35.4645 77.6601C35.5691 77.4113 35.7134 77.2003 35.8974 77.0271C36.0813 76.8504 36.2995 76.7151 36.552 76.6213C36.8045 76.5276 37.0804 76.4807 37.3798 76.4807C37.6864 76.4807 37.9677 76.5186 38.2238 76.5943C38.4835 76.6664 38.7107 76.7927 38.9055 76.973L38.3104 77.6223C38.195 77.5032 38.0651 77.4131 37.9208 77.3517C37.7766 77.2904 37.5962 77.2598 37.3798 77.2598C37.1995 77.2598 37.0353 77.2904 36.8875 77.3517C36.7432 77.4131 36.6187 77.4996 36.5141 77.6114C36.4095 77.7196 36.3284 77.8495 36.2707 78.001C36.2166 78.1525 36.1895 78.3166 36.1895 78.4933C36.1895 78.6737 36.2166 78.8396 36.2707 78.9911C36.3284 79.139 36.4095 79.2688 36.5141 79.3806C36.6187 79.4888 36.7432 79.5736 36.8875 79.6349C37.0353 79.6962 37.1995 79.7269 37.3798 79.7269C37.5637 79.7269 37.7225 79.707 37.8559 79.6674C37.9894 79.6241 38.0958 79.5808 38.1751 79.5375V78.9153H37.488V78.1362H38.9867V80.1381Z" fill="#C8E6C9"/>
<path d="M98.2569 71.3035C97.7872 67.7308 94.7258 67.6746 94.7258 65.8883C94.7258 64.1019 97.3678 63.249 95.3639 60.2729C93.7901 57.9355 88.7893 58.0794 87.3338 60.0694C85.5772 62.4699 87.6672 64.1054 87.6672 65.8918C87.6672 67.6781 84.6057 67.7343 84.1361 71.307C83.6665 74.8798 85.018 78.3262 91.1947 78.3262C97.3714 78.3262 98.7265 74.8763 98.2569 71.3035Z" fill="#C8E6C9"/>
<path d="M91.1947 78.5054C88.4343 78.5054 86.4197 77.8035 85.2008 76.4664C84.1038 75.2415 83.6737 73.4481 83.9569 71.2827C84.2401 69.1173 85.3908 68.2469 86.3157 67.5064C86.9681 66.9835 87.4879 66.5693 87.4879 65.8885C87.4424 65.2791 87.2794 64.6837 87.0076 64.1337C86.5236 62.9545 85.9751 61.6138 87.1868 59.9538C87.9217 58.95 89.5851 58.3324 91.4169 58.3604C93.2488 58.3885 94.7759 59.0623 95.5108 60.1608C96.8767 62.1894 96.1669 63.3195 95.5359 64.3057C95.2133 64.8181 94.905 65.3024 94.905 65.878C94.905 66.5588 95.4212 66.9729 96.0772 67.4959C97.0021 68.2364 98.1565 69.1594 98.4361 71.2722C98.7157 73.3849 98.2891 75.231 97.1921 76.4558C95.9733 77.8211 93.9586 78.5054 91.1947 78.5054ZM91.2664 58.7219C89.603 58.7219 88.1296 59.2835 87.4808 60.1679C86.3802 61.6735 86.8678 62.8632 87.341 64.0284C87.6295 64.616 87.8011 65.252 87.8464 65.9025C87.8464 66.7518 87.2406 67.2326 86.5415 67.7907C85.6632 68.4926 84.5734 69.3665 84.3118 71.3389C84.0429 73.406 84.4408 75.1011 85.4732 76.2523C86.6168 77.5263 88.5419 78.172 91.209 78.172C93.8761 78.172 95.7904 77.5263 96.9448 76.2523C97.9772 75.1046 98.3787 73.4095 98.1027 71.3389C97.8446 69.3665 96.7512 68.4926 95.8765 67.7907C95.1595 67.2326 94.5716 66.7378 94.5716 65.9025C94.6246 65.2651 94.8635 64.656 95.2599 64.1477C95.8837 63.158 96.4752 62.2245 95.2384 60.382C94.568 59.3852 93.1448 58.7746 91.4349 58.7395L91.2664 58.7219Z" fill="#303030"/>
<path d="M91.1882 59.7643H91.1595C91.1129 59.7565 91.0711 59.7313 91.043 59.694C91.0149 59.6567 91.0027 59.6102 91.009 59.5642C91.0269 59.4449 91.4642 56.6829 92.2995 55.7423C92.3151 55.7248 92.334 55.7104 92.3552 55.7001C92.3764 55.6897 92.3994 55.6835 92.4231 55.6819C92.4467 55.6803 92.4704 55.6832 92.4929 55.6906C92.5154 55.6979 92.5361 55.7095 92.554 55.7248C92.5719 55.74 92.5866 55.7585 92.5972 55.7792C92.6077 55.8 92.6141 55.8226 92.6157 55.8457C92.6174 55.8688 92.6144 55.8921 92.6069 55.9141C92.5994 55.9361 92.5875 55.9564 92.572 55.9739C91.8012 56.8373 91.3675 59.5888 91.3639 59.6169C91.3578 59.6581 91.3366 59.6958 91.3043 59.7229C91.272 59.75 91.2308 59.7647 91.1882 59.7643Z" fill="#303030"/>
<path d="M91.6508 58.027C91.6508 58.027 91.5074 54.9596 87.7075 55.0509C87.7075 55.0614 87.4028 58.0691 91.6508 58.027Z" fill="#357A38"/>
<path d="M94.8377 62.7822C94.7933 62.7816 94.7507 62.7653 94.7177 62.7363C94.6847 62.7072 94.6637 62.6674 94.6584 62.6243C94.4828 60.7396 93.2962 60.1149 93.246 60.0904C93.2233 60.0811 93.2027 60.0673 93.1856 60.0499C93.1686 60.0325 93.1553 60.0118 93.1468 59.9892C93.1382 59.9666 93.1346 59.9424 93.136 59.9184C93.1374 59.8943 93.1438 59.8707 93.155 59.8492C93.1661 59.8276 93.1816 59.8086 93.2006 59.7932C93.2196 59.7778 93.2416 59.7664 93.2653 59.7597C93.289 59.7531 93.3138 59.7512 93.3383 59.7544C93.3627 59.7575 93.3862 59.7656 93.4073 59.778C93.4647 59.8061 94.8198 60.5045 95.0169 62.5857C95.0194 62.6085 95.0171 62.6317 95.0103 62.6537C95.0035 62.6757 94.9922 62.6961 94.9772 62.7138C94.9621 62.7315 94.9436 62.746 94.9227 62.7566C94.9019 62.7671 94.879 62.7734 94.8556 62.7752L94.8377 62.7822Z" fill="#424242"/>
<path d="M94.1955 64.3337C94.1638 64.3325 94.133 64.3234 94.106 64.307C94.079 64.2907 94.0568 64.2678 94.0417 64.2405C94.0265 64.2132 94.0188 64.1826 94.0194 64.1515C94.0199 64.1205 94.0288 64.0901 94.045 64.0634C94.1699 63.8588 94.279 63.6453 94.3712 63.4247C94.3888 63.3814 94.4232 63.3467 94.4669 63.3283C94.5106 63.3099 94.56 63.3092 94.6042 63.3264C94.6484 63.3436 94.6838 63.3774 94.7026 63.4201C94.7215 63.4629 94.7221 63.5113 94.7046 63.5545C94.6027 63.7967 94.4829 64.0313 94.3461 64.2565C94.329 64.2801 94.3065 64.2994 94.2803 64.3128C94.2541 64.3263 94.2251 64.3334 94.1955 64.3337Z" fill="#424242"/>
<path d="M73.3601 52.5589H87.2622V78.3333H73.3601V52.5589Z" fill="#C8E6C9"/>
<path d="M87.2622 78.5053H73.3673C73.3198 78.5053 73.2742 78.4868 73.2406 78.4539C73.2069 78.421 73.1881 78.3764 73.1881 78.3298V52.559C73.1881 52.5124 73.2069 52.4678 73.2406 52.4349C73.2742 52.402 73.3198 52.3835 73.3673 52.3835H87.2694C87.3169 52.3835 87.3625 52.402 87.3961 52.4349C87.4297 52.4678 87.4486 52.5124 87.4486 52.559V78.3298C87.4486 78.3535 87.4438 78.3769 87.4343 78.3986C87.4249 78.4204 87.411 78.4401 87.3936 78.4565C87.3762 78.4728 87.3556 78.4856 87.333 78.494C87.3104 78.5024 87.2863 78.5062 87.2622 78.5053ZM73.5394 78.1543H87.0829V52.7345H73.5394V78.1543Z" fill="#303030"/>
<path d="M84.6846 47.5612H75.9412L73.3601 52.5589H87.2622L84.6846 47.5612Z" fill="#C8E6C9"/>
<path d="M87.2627 52.7344H73.3678C73.3374 52.7343 73.3076 52.7265 73.2812 52.7117C73.2548 52.6969 73.2328 52.6757 73.2173 52.6501C73.2022 52.6239 73.1943 52.5943 73.1943 52.5641C73.1943 52.534 73.2022 52.5044 73.2173 52.4782L75.7948 47.484C75.8095 47.4554 75.832 47.4314 75.8599 47.4147C75.8877 47.3979 75.9198 47.3891 75.9525 47.3893H84.6996C84.7323 47.3887 84.7646 47.3973 84.7925 47.4141C84.8205 47.4309 84.843 47.4552 84.8573 47.484L87.4384 52.4782C87.4525 52.5047 87.4599 52.5342 87.4599 52.5641C87.4599 52.5941 87.4525 52.6236 87.4384 52.6501C87.42 52.6787 87.3938 52.7017 87.3628 52.7166C87.3317 52.7315 87.2971 52.7376 87.2627 52.7344ZM73.6403 52.3834H86.9903L84.592 47.7402H76.0493L73.6403 52.3834Z" fill="#303030"/>
<path d="M75.8912 46.1819H84.7314V47.5612H75.8912V46.1819Z" fill="#C8E6C9"/>
<path d="M84.7314 47.7404H75.8768C75.8296 47.7395 75.7845 47.7207 75.7511 47.688C75.7177 47.6553 75.6985 47.6112 75.6976 47.5649V46.1821C75.6976 46.1356 75.7165 46.091 75.7501 46.058C75.7837 46.0251 75.8293 46.0066 75.8768 46.0066H84.7314C84.779 46.0066 84.8246 46.0251 84.8582 46.058C84.8918 46.091 84.9107 46.1356 84.9107 46.1821V47.5649C84.9107 47.6114 84.8918 47.6561 84.8582 47.689C84.8246 47.7219 84.779 47.7404 84.7314 47.7404ZM76.0704 47.3894H84.5522V46.3576H76.0704V47.3894Z" fill="#303030"/>
<path d="M75.0278 58.0478H85.5995V68.3976H75.0278V58.0478Z" fill="#357A38"/>
<path d="M75.7337 71.1811C75.7337 75.3469 73.1848 79.2847 68.0262 78.0984C62.5522 79.3478 60.3224 75.3469 60.3224 71.1811C60.3224 67.0152 63.8248 66.1939 68.0262 67.5802C72.1022 66.0079 75.7337 67.0152 75.7337 71.1811Z" fill="#C8E6C9"/>
<path d="M66.0908 78.5088C64.8471 78.54 63.6309 78.1481 62.6493 77.3998C61.0577 76.1609 60.1399 73.8902 60.1399 71.1808C60.1399 69.5208 60.6741 68.3029 61.7316 67.5624C63.119 66.5833 65.3523 66.5096 68.0195 67.394C70.4858 66.4569 72.73 66.4709 74.1818 67.4361C75.311 68.1906 75.9097 69.4857 75.9097 71.1808C75.9097 73.7744 74.9346 76.0942 73.3035 77.3436C71.9162 78.4211 70.0772 78.7475 68.023 78.2807C67.3896 78.4265 66.7415 78.503 66.0908 78.5088ZM64.5959 67.1307C63.6584 67.087 62.7305 67.3325 61.9431 67.8327C60.986 68.503 60.5092 69.6261 60.5092 71.1668C60.5092 73.7744 61.3731 75.9398 62.8788 77.112C64.1801 78.1228 65.9008 78.393 67.9944 77.9157C68.0214 77.9087 68.0498 77.9087 68.0768 77.9157C70.0485 78.3684 71.7835 78.0701 73.0956 77.0558C74.6407 75.8556 75.5656 73.6551 75.5656 71.1668C75.5656 69.591 75.0207 68.3977 73.9918 67.7133C72.6296 66.8044 70.4822 66.8114 68.1055 67.7133C68.0649 67.7273 68.0206 67.7273 67.98 67.7133C66.8909 67.3437 65.7485 67.147 64.5959 67.1307Z" fill="#303030"/>
<path d="M68.0263 67.7553H67.9905C67.9438 67.7475 67.902 67.7224 67.874 67.685C67.8459 67.6477 67.8337 67.6012 67.8399 67.5553C67.8399 67.4359 68.3024 64.6178 69.1555 63.6596C69.1707 63.6412 69.1896 63.6259 69.2109 63.6148C69.2323 63.6037 69.2557 63.5969 69.2798 63.5949C69.3039 63.5929 69.3282 63.5956 69.3512 63.603C69.3742 63.6104 69.3954 63.6223 69.4136 63.638C69.4317 63.6536 69.4465 63.6727 69.4569 63.6941C69.4673 63.7155 69.4732 63.7387 69.4742 63.7624C69.4752 63.786 69.4714 63.8097 69.4628 63.8318C69.4542 63.854 69.4412 63.8742 69.4244 63.8913C68.6429 64.7722 68.1984 67.5798 68.1948 67.6079C68.1877 67.6474 68.1672 67.6834 68.1366 67.7102C68.1061 67.7369 68.0672 67.7528 68.0263 67.7553Z" fill="#303030"/>
<path d="M68.5104 65.9865C68.5104 65.9865 68.3635 62.8595 64.4954 62.9507C64.4954 62.9507 64.1692 66.0286 68.5104 65.9865Z" fill="#357A38"/>
<path d="M74.1415 73.1006C74.1181 73.0997 74.0951 73.0942 74.0739 73.0845C74.0527 73.0748 74.0337 73.061 74.018 73.044C74.0023 73.027 73.9902 73.0071 73.9825 72.9855C73.9748 72.9639 73.9716 72.9409 73.973 72.9181C74.0698 71.079 73.7328 69.6928 72.9943 68.9066C72.6747 68.5328 72.2202 68.294 71.7253 68.2398C71.7018 68.2389 71.6786 68.2335 71.6572 68.2238C71.6358 68.2141 71.6166 68.2004 71.6006 68.1835C71.5846 68.1665 71.5722 68.1467 71.5641 68.125C71.556 68.1034 71.5523 68.0803 71.5532 68.0573C71.5532 68.0343 71.558 68.0115 71.5673 67.9903C71.5766 67.9691 71.5902 67.9501 71.6074 67.9343C71.6245 67.9185 71.6448 67.9063 71.6669 67.8985C71.689 67.8907 71.7126 67.8874 71.7361 67.8888C72.3227 67.9447 72.8646 68.22 73.2489 68.6574C74.0698 69.5243 74.4355 70.9632 74.3243 72.9356C74.3207 72.9806 74.2999 73.0226 74.266 73.0532C74.2321 73.0838 74.1876 73.1007 74.1415 73.1006Z" fill="#424242"/>
</g>
</svg>
